<svg width="267" height="62" viewBox="0 0 267 62" fill="none" xmlns="http://www.w3.org/2000/svg">
<path d="M65.6469 10.0686C65.6469 10.0686 77.6601 -3.22994 90.9206 0.739877C90.9206 0.739877 93.596 1.82229 90.4456 5.73606C87.2951 9.64689 73.201 26.3785 73.201 26.3785C73.201 26.3785 69.6921 29.027 72.7843 32.3362C75.8764 35.6453 76.1154 36.7897 89.7927 42.7474L86.82 47.1419C86.82 47.1419 71.0007 48.5251 56.4928 47.9235C56.4928 47.9235 60.538 45.3959 64.2247 36.0081C64.2247 36.0081 29.7327 77.0512 0 55.987C0 55.987 17.1279 60.6823 32.2304 46.2364L4.99528 40.7005L8.56251 36.1261C8.56251 36.1261 41.1514 35.2826 51.378 25.7739C61.6046 16.2652 59.4334 17.0645 65.6469 10.0686Z" fill="#7B52AB"/>
<path d="M103.499 26.4169V46.7555H97.2332V26.4169H103.499ZM114.239 26.4169H122.551L111.068 36.2234L124.031 46.7555H114.953L103.496 36.2234L114.239 26.4169Z" fill="#7B52AB"/>
<path d="M133.646 43.2871L131.781 46.7555H124.824L135.846 26.4169H143.875L154.793 46.7555H147.836L145.994 43.2871H133.646ZM135.922 38.9162H143.695L139.807 31.593L135.922 38.9162Z" fill="#7B52AB"/>
<path d="M156.352 26.4169H174.071C175.027 26.4169 175.87 26.4611 176.604 26.5466C177.336 26.6322 178.035 26.8445 178.699 27.1807C179.364 27.517 179.906 28.0449 180.323 28.7586C180.74 29.4753 180.949 30.4191 180.949 31.593C180.949 32.6282 180.804 33.4687 180.515 34.1146C180.224 34.7605 179.883 35.2442 179.492 35.5628C179.099 35.8813 178.734 36.0877 178.393 36.1851C178.052 36.2794 177.787 36.3266 177.601 36.3266V36.4033C177.959 36.4033 178.35 36.4505 178.778 36.5449C179.204 36.6393 179.638 36.8398 180.081 37.1407C180.524 37.4415 180.9 37.9134 181.206 38.5504C181.512 39.1905 181.666 40.0163 181.666 41.0338C181.666 42.3109 181.483 43.3313 181.115 44.1011C180.748 44.8679 180.229 45.4431 179.556 45.8206C178.883 46.201 178.117 46.4517 177.254 46.5697C176.394 46.6906 175.33 46.7496 174.071 46.7496H156.352V39.8924V26.4169ZM162.338 34.4391H173.206C173.666 34.4391 174.057 34.2798 174.383 33.9613C174.707 33.6427 174.87 33.2062 174.87 32.6547C174.87 32.171 174.715 31.7699 174.409 31.4514C174.103 31.1328 173.727 30.9736 173.284 30.9736H162.341V34.4391H162.338ZM162.44 42.0189H173.818C174.313 42.0189 174.713 41.8773 175.019 41.5912C175.325 41.3081 175.479 40.8539 175.479 40.2316C175.479 39.7302 175.325 39.3261 175.019 39.0164C174.713 38.7068 174.31 38.5504 173.818 38.5504H162.44V42.0189Z" fill="#7B52AB"/>
<path d="M183.689 31.59C183.689 30.7612 183.782 30.077 183.972 29.5313C184.158 28.9887 184.508 28.4843 185.021 28.0183C185.464 27.57 185.959 27.225 186.504 26.9831C187.049 26.7413 187.734 26.5702 188.562 26.467C189.39 26.3638 190.38 26.2989 191.54 26.2723C192.7 26.2458 194.49 26.234 196.912 26.234C199.333 26.234 201.123 26.2458 202.283 26.2723C203.443 26.2989 204.428 26.3638 205.235 26.467C206.042 26.5702 206.719 26.7442 207.255 26.9831C207.791 27.225 208.281 27.57 208.724 28.0183C209.234 28.4843 209.583 28.9887 209.773 29.5313C209.959 30.074 210.053 30.7612 210.053 31.59V34.5393C210.053 37.2144 210.053 39.5326 210.053 41.4998C210.053 42.3286 209.959 43.0275 209.773 43.5968C209.586 44.166 209.237 44.6821 208.724 45.1481C208.281 45.5787 207.782 45.912 207.229 46.145C206.675 46.378 205.984 46.552 205.156 46.6611C204.329 46.7732 203.312 46.8469 202.099 46.8823C200.89 46.9177 199.132 46.9354 196.833 46.9354C194.531 46.9354 192.785 46.9177 191.59 46.8823C190.398 46.8469 189.381 46.7732 188.547 46.6611C187.711 46.5491 187.029 46.375 186.501 46.145C185.974 45.912 185.478 45.5787 185.018 45.1481C184.508 44.6821 184.158 44.166 183.969 43.5968C183.782 43.0275 183.686 42.3286 183.686 41.4998V31.59H183.689ZM189.34 40.7005C189.34 41.1311 189.468 41.429 189.725 41.5942C189.981 41.7593 190.465 41.839 191.182 41.839C192.12 41.839 195.912 41.839 202.56 41.839C203.224 41.839 203.714 41.7328 204.031 41.5145C204.346 41.2992 204.504 41.0279 204.504 40.7005V38.3705V32.4689C204.504 31.9852 204.372 31.6578 204.107 31.4868C203.842 31.3157 203.352 31.2272 202.638 31.2272C201.7 31.2272 197.882 31.2272 191.182 31.2272C190.517 31.2272 190.042 31.3393 189.763 31.5634C189.483 31.7876 189.34 32.0914 189.34 32.4689V40.7005Z" fill="#7B52AB"/>
<path d="M212.25 31.59C212.25 30.7612 212.343 30.077 212.533 29.5313C212.719 28.9887 213.069 28.4843 213.582 28.0183C214.025 27.57 214.52 27.225 215.065 26.9831C215.61 26.7413 216.295 26.5702 217.123 26.467C217.951 26.3638 218.942 26.2989 220.101 26.2723C221.261 26.2458 223.051 26.234 225.473 26.234C227.895 26.234 229.684 26.2458 230.844 26.2723C232.004 26.2989 232.989 26.3638 233.796 26.467C234.604 26.5702 235.28 26.7442 235.816 26.9831C236.352 27.225 236.842 27.57 237.285 28.0183C237.795 28.4843 238.145 28.9887 238.334 29.5313C238.52 30.074 238.614 30.7612 238.614 31.59V34.5393C238.614 37.2144 238.614 39.5326 238.614 41.4998C238.614 42.3286 238.52 43.0275 238.334 43.5968C238.147 44.166 237.798 44.6821 237.285 45.1481C236.842 45.5787 236.343 45.912 235.79 46.145C235.236 46.378 234.545 46.552 233.718 46.6611C232.89 46.7732 231.873 46.8469 230.66 46.8823C229.451 46.9177 227.693 46.9354 225.394 46.9354C223.092 46.9354 221.346 46.9177 220.151 46.8823C218.959 46.8469 217.942 46.7732 217.108 46.6611C216.272 46.5491 215.59 46.375 215.062 46.145C214.535 45.912 214.039 45.5787 213.579 45.1481C213.069 44.6821 212.719 44.166 212.53 43.5968C212.343 43.0275 212.247 42.3286 212.247 41.4998V31.59H212.25ZM217.904 40.7005C217.904 41.1311 218.032 41.429 218.289 41.5942C218.545 41.7593 219.029 41.839 219.746 41.839C220.684 41.839 224.476 41.839 231.124 41.839C231.788 41.839 232.278 41.7328 232.595 41.5145C232.91 41.2992 233.068 41.0279 233.068 40.7005V38.3705V32.4689C233.068 31.9852 232.936 31.6578 232.671 31.4868C232.406 31.3157 231.916 31.2272 231.202 31.2272C230.264 31.2272 226.446 31.2272 219.746 31.2272C219.081 31.2272 218.606 31.3393 218.327 31.5634C218.047 31.7876 217.904 32.0914 217.904 32.4689V40.7005Z" fill="#7B52AB"/>
<path d="M258.612 35.1381C259.09 34.7753 259.329 34.2503 259.329 33.5602C259.329 32.9555 259.099 32.46 258.639 32.0737C258.178 31.6844 257.642 31.4927 257.027 31.4927H247.08V46.7555H240.814V26.4169H257.487C258.901 26.4169 260.078 26.5201 261.017 26.7265C261.955 26.933 262.722 27.2751 263.319 27.75C263.917 28.2248 264.354 28.8677 264.636 29.6788C264.916 30.4899 265.059 31.5163 265.059 32.7579C265.059 33.9996 264.948 35.0437 264.727 35.8901C264.505 36.7366 264.156 37.4179 263.678 37.934C263.2 38.4502 262.564 38.8306 261.772 39.0725C260.979 39.3143 259.985 39.4352 258.793 39.4352V39.5385L267 46.7555H260.043L247.949 35.6807H256.948C257.581 35.6807 258.134 35.4979 258.612 35.1381Z" fill="#7B52AB"/>
</svg>
